<svg xmlns="http://www.w3.org/2000/svg" version="1.1" xmlns:xlink="http://www.w3.org/1999/xlink" xmlns:svgjs="http://svgjs.dev/svgjs" width="1500" height="1500" viewBox="0 0 1500 1500"><rect width="1500" height="1500" fill="#000000"></rect><g transform="matrix(0.6666666666666666,0,0,0.6666666666666666,249.39393939393938,438.6412145748988)"><svg viewBox="0 0 396 247" data-background-color="#000000" preserveAspectRatio="xMidYMid meet" height="935" width="1500" xmlns="http://www.w3.org/2000/svg" xmlns:xlink="http://www.w3.org/1999/xlink"><g id="tight-bounds" transform="matrix(1,0,0,1,0.2400000000000091,-0.11100000000001842)"><svg viewBox="0 0 395.52 247.2" height="247.2" width="395.52"><rect width="395.52" height="247.233" fill="url(#6e8370fe-2b86-4635-8935-32d38f7e5c48)" mask="url(#7808e6a9-175b-4dbf-8bbd-13d8247020bd)" data-fill-palette-color="tertiary"></rect><g><svg></svg></g><g><svg viewBox="0 0 395.52 247.2" height="247.2" width="395.52"><mask id="869c7ad2-2a39-404c-b90d-f3e14da6cb5a"><rect width="395.52" height="247.2" fill="white"></rect><g transform="matrix(1,0,0,1,75.04086498683715,37.08)" id="clone"><svg viewBox="0 0 245.43827002632568 173.04" height="173.04" width="245.43827002632568"><g><svg viewBox="0 0 245.43827002632568 173.04" height="173.04" width="245.43827002632568"><g><svg viewBox="0 0 245.43827002632568 173.04" height="173.04" width="245.43827002632568"><g><svg viewBox="0 0 245.43827002632568 173.04" height="173.04" width="245.43827002632568"><g id="SvgjsG1254"><svg viewBox="0 0 245.43827002632568 173.04" height="173.04" width="245.43827002632568" id="SvgjsSvg1253"><g><svg viewBox="0 0 245.43827002632568 173.04" height="173.04" width="245.43827002632568"><g transform="matrix(1,0,0,1,0,0)"><svg width="245.43827002632568" viewBox="1.4100000000000001 -39.05 59.92 42.55" height="173.04" data-palette-color="url(#79a575a6-2a97-4933-87dd-333ca851ed48)"><path d="M7.84-12.77L12.43-17.58 25.29 0 28.86 0 14.38-19.8 27.88-35.55 24.22-35.55 12.21-21.58 7.84-16.63 7.84-35.55 4.91-35.55 4.91 0 7.84 0 7.84-12.77ZM46.48-32.96L57.83-32.96 57.83-35.55 32.3-35.55 32.3-32.96 43.65-32.96 43.63 0 46.48 0 46.48-32.96Z" opacity="1" transform="matrix(1,0,0,1,0,0)" fill="black" class="wordmark-text-0" id="SvgjsPath1252" stroke-width="6" stroke="black" stroke-linejoin="round"></path></svg></g></svg></g></svg></g></svg></g></svg></g></svg></g></svg></g></mask><g mask="url(#869c7ad2-2a39-404c-b90d-f3e14da6cb5a)"><g><path d="M134.859 158.406l31.92-33.45 89.431 122.255h24.827l-100.697-137.693 93.881-109.529h-25.452l-83.52 97.15-30.39 34.424v-131.574h-20.376v247.222h20.376z" fill="url(#6e8370fe-2b86-4635-8935-32d38f7e5c48)" fill-rule="nonzero" stroke="none" stroke-width="1" stroke-linecap="butt" stroke-linejoin="miter" stroke-miterlimit="10" stroke-dasharray="" stroke-dashoffset="0" font-family="none" font-weight="none" font-size="none" text-anchor="none" style="mix-blend-mode: normal" data-fill-palette-color="tertiary"></path></g></g><g transform="matrix(1,0,0,1,75.04086498683715,37.08)"><svg viewBox="0 0 245.43827002632568 173.04" height="173.04" width="245.43827002632568"><g><svg viewBox="0 0 245.43827002632568 173.04" height="173.04" width="245.43827002632568"><g><svg viewBox="0 0 245.43827002632568 173.04" height="173.04" width="245.43827002632568"><g><svg viewBox="0 0 245.43827002632568 173.04" height="173.04" width="245.43827002632568"><g id="textblocktransform"><svg viewBox="0 0 245.43827002632568 173.04" height="173.04" width="245.43827002632568" id="textblock"><g><svg viewBox="0 0 245.43827002632568 173.04" height="173.04" width="245.43827002632568"><g transform="matrix(1,0,0,1,0,0)"><svg width="245.43827002632568" viewBox="1.4100000000000001 -39.05 59.92 42.55" height="173.04" data-palette-color="url(#79a575a6-2a97-4933-87dd-333ca851ed48)"></svg></g></svg></g></svg></g></svg></g></svg></g></svg></g></svg></g></svg></g><defs></defs><mask id="423061e4-f528-40f3-8209-433fdcc0d6d3"><g id="SvgjsG1264"><svg viewBox="0 0 395.52 247.2" height="247.2" width="395.52"><g><svg></svg></g><g><svg viewBox="0 0 395.52 247.2" height="247.2" width="395.52"><mask id="SvgjsMask1263"><rect width="395.52" height="247.2" fill="black"></rect><g transform="matrix(1,0,0,1,75.04086498683715,37.08)" id="SvgjsG1262"><svg viewBox="0 0 245.43827002632568 173.04" height="173.04" width="245.43827002632568"><g><svg viewBox="0 0 245.43827002632568 173.04" height="173.04" width="245.43827002632568"><g><svg viewBox="0 0 245.43827002632568 173.04" height="173.04" width="245.43827002632568"><g><svg viewBox="0 0 245.43827002632568 173.04" height="173.04" width="245.43827002632568"><g id="SvgjsG1261"><svg viewBox="0 0 245.43827002632568 173.04" height="173.04" width="245.43827002632568" id="SvgjsSvg1260"><g><svg viewBox="0 0 245.43827002632568 173.04" height="173.04" width="245.43827002632568"><g transform="matrix(1,0,0,1,0,0)"><svg width="245.43827002632568" viewBox="1.4100000000000001 -39.05 59.92 42.55" height="173.04" data-palette-color="url(#79a575a6-2a97-4933-87dd-333ca851ed48)"><path d="M7.84-12.77L12.43-17.58 25.29 0 28.86 0 14.38-19.8 27.88-35.55 24.22-35.55 12.21-21.58 7.84-16.63 7.84-35.55 4.91-35.55 4.91 0 7.84 0 7.84-12.77ZM46.48-32.96L57.83-32.96 57.83-35.55 32.3-35.55 32.3-32.96 43.65-32.96 43.63 0 46.48 0 46.48-32.96Z" opacity="1" transform="matrix(1,0,0,1,0,0)" fill="black" class="wordmark-text-0" id="SvgjsPath1259" stroke-width="6" stroke="black" stroke-linejoin="round"></path></svg></g></svg></g></svg></g></svg></g></svg></g></svg></g></svg></g></mask><g mask="url(#869c7ad2-2a39-404c-b90d-f3e14da6cb5a)"><g><path d="M134.859 158.406l31.92-33.45 89.431 122.255h24.827l-100.697-137.693 93.881-109.529h-25.452l-83.52 97.15-30.39 34.424v-131.574h-20.376v247.222h20.376z" fill="black" fill-rule="nonzero" stroke="none" stroke-width="1" stroke-linecap="butt" stroke-linejoin="miter" stroke-miterlimit="10" stroke-dasharray="" stroke-dashoffset="0" font-family="none" font-weight="none" font-size="none" text-anchor="none" style="mix-blend-mode: normal"></path></g></g><g transform="matrix(1,0,0,1,75.04086498683715,37.08)"><svg viewBox="0 0 245.43827002632568 173.04" height="173.04" width="245.43827002632568"><g><svg viewBox="0 0 245.43827002632568 173.04" height="173.04" width="245.43827002632568"><g><svg viewBox="0 0 245.43827002632568 173.04" height="173.04" width="245.43827002632568"><g><svg viewBox="0 0 245.43827002632568 173.04" height="173.04" width="245.43827002632568"><g id="SvgjsG1258"><svg viewBox="0 0 245.43827002632568 173.04" height="173.04" width="245.43827002632568" id="SvgjsSvg1257"><g><svg viewBox="0 0 245.43827002632568 173.04" height="173.04" width="245.43827002632568"><g transform="matrix(1,0,0,1,0,0)"><svg width="245.43827002632568" viewBox="1.4100000000000001 -39.05 59.92 42.55" height="173.04" data-palette-color="url(#79a575a6-2a97-4933-87dd-333ca851ed48)"><path d="M7.84-12.77L12.43-17.58 25.29 0 28.86 0 14.38-19.8 27.88-35.55 24.22-35.55 12.21-21.58 7.84-16.63 7.84-35.55 4.91-35.55 4.91 0 7.84 0 7.84-12.77ZM46.48-32.96L57.83-32.96 57.83-35.55 32.3-35.55 32.3-32.96 43.65-32.96 43.63 0 46.48 0 46.48-32.96Z" opacity="1" transform="matrix(1,0,0,1,0,0)" fill="white" class="wordmark-text-0" id="SvgjsPath1256"></path></svg></g></svg></g></svg></g></svg></g></svg></g></svg></g></svg></g></svg></g><defs><mask></mask></defs></svg><rect width="395.52" height="247.2" fill="black" stroke="none" visibility="hidden"></rect></g></mask><linearGradient x1="0" x2="1" y1="0.578" y2="0.595" id="79a575a6-2a97-4933-87dd-333ca851ed48"><stop stop-color="#6ee2f5" offset="0"></stop><stop stop-color="#6454f0" offset="1"></stop></linearGradient><rect width="395.52" height="247.222" fill="url(#79a575a6-2a97-4933-87dd-333ca851ed48)" mask="url(#423061e4-f528-40f3-8209-433fdcc0d6d3)" data-fill-palette-color="primary"></rect><mask id="7808e6a9-175b-4dbf-8bbd-13d8247020bd"><g id="SvgjsG1317"><svg viewBox="0 0 395.52 247.2" height="247.2" width="395.52"><g><svg></svg></g><g><svg viewBox="0 0 395.52 247.2" height="247.2" width="395.52"><mask id="SvgjsMask1316"><rect width="395.52" height="247.2" fill="black"></rect><g transform="matrix(1,0,0,1,75.04086498683715,37.08)" id="SvgjsG1315"><svg viewBox="0 0 245.43827002632568 173.04" height="173.04" width="245.43827002632568"><g><svg viewBox="0 0 245.43827002632568 173.04" height="173.04" width="245.43827002632568"><g><svg viewBox="0 0 245.43827002632568 173.04" height="173.04" width="245.43827002632568"><g><svg viewBox="0 0 245.43827002632568 173.04" height="173.04" width="245.43827002632568"><g id="SvgjsG1314"><svg viewBox="0 0 245.43827002632568 173.04" height="173.04" width="245.43827002632568" id="SvgjsSvg1313"><g><svg viewBox="0 0 245.43827002632568 173.04" height="173.04" width="245.43827002632568"><g transform="matrix(1,0,0,1,0,0)"><svg width="245.43827002632568" viewBox="1.4100000000000001 -39.05 59.92 42.55" height="173.04" data-palette-color="url(#79a575a6-2a97-4933-87dd-333ca851ed48)"><path d="M7.84-12.77L12.43-17.58 25.29 0 28.86 0 14.38-19.8 27.88-35.55 24.22-35.55 12.21-21.58 7.84-16.63 7.84-35.55 4.91-35.55 4.91 0 7.84 0 7.84-12.77ZM46.48-32.96L57.83-32.96 57.83-35.55 32.3-35.55 32.3-32.96 43.65-32.96 43.63 0 46.48 0 46.48-32.96Z" opacity="1" transform="matrix(1,0,0,1,0,0)" fill="black" class="wordmark-text-0" id="SvgjsPath1312" stroke-width="6" stroke="black" stroke-linejoin="round"></path></svg></g></svg></g></svg></g></svg></g></svg></g></svg></g></svg></g></mask><g mask="url(#869c7ad2-2a39-404c-b90d-f3e14da6cb5a)"><g><path d="M134.859 158.406l31.92-33.45 89.431 122.255h24.827l-100.697-137.693 93.881-109.529h-25.452l-83.52 97.15-30.39 34.424v-131.574h-20.376v247.222h20.376z" fill="white" fill-rule="nonzero" stroke="none" stroke-width="1" stroke-linecap="butt" stroke-linejoin="miter" stroke-miterlimit="10" stroke-dasharray="" stroke-dashoffset="0" font-family="none" font-weight="none" font-size="none" text-anchor="none" style="mix-blend-mode: normal"></path></g></g><g transform="matrix(1,0,0,1,75.04086498683715,37.08)"><svg viewBox="0 0 245.43827002632568 173.04" height="173.04" width="245.43827002632568"><g><svg viewBox="0 0 245.43827002632568 173.04" height="173.04" width="245.43827002632568"><g><svg viewBox="0 0 245.43827002632568 173.04" height="173.04" width="245.43827002632568"><g><svg viewBox="0 0 245.43827002632568 173.04" height="173.04" width="245.43827002632568"><g id="SvgjsG1311"><svg viewBox="0 0 245.43827002632568 173.04" height="173.04" width="245.43827002632568" id="SvgjsSvg1310"><g><svg viewBox="0 0 245.43827002632568 173.04" height="173.04" width="245.43827002632568"><g transform="matrix(1,0,0,1,0,0)"><svg width="245.43827002632568" viewBox="1.4100000000000001 -39.05 59.92 42.55" height="173.04" data-palette-color="url(#79a575a6-2a97-4933-87dd-333ca851ed48)"></svg></g></svg></g></svg></g></svg></g></svg></g></svg></g></svg></g></svg></g><defs><mask></mask></defs><mask><g id="SvgjsG1309"><svg viewBox="0 0 395.52 247.2" height="247.2" width="395.52"><g><svg></svg></g><g><svg viewBox="0 0 395.52 247.2" height="247.2" width="395.52"><mask id="SvgjsMask1308"><rect width="395.52" height="247.2" fill="black"></rect><g transform="matrix(1,0,0,1,75.04086498683715,37.08)" id="SvgjsG1307"><svg viewBox="0 0 245.43827002632568 173.04" height="173.04" width="245.43827002632568"><g><svg viewBox="0 0 245.43827002632568 173.04" height="173.04" width="245.43827002632568"><g><svg viewBox="0 0 245.43827002632568 173.04" height="173.04" width="245.43827002632568"><g><svg viewBox="0 0 245.43827002632568 173.04" height="173.04" width="245.43827002632568"><g id="SvgjsG1306"><svg viewBox="0 0 245.43827002632568 173.04" height="173.04" width="245.43827002632568" id="SvgjsSvg1305"><g><svg viewBox="0 0 245.43827002632568 173.04" height="173.04" width="245.43827002632568"><g transform="matrix(1,0,0,1,0,0)"><svg width="245.43827002632568" viewBox="1.4100000000000001 -39.05 59.92 42.55" height="173.04" data-palette-color="url(#79a575a6-2a97-4933-87dd-333ca851ed48)"><path d="M7.84-12.77L12.43-17.58 25.29 0 28.86 0 14.38-19.8 27.88-35.55 24.22-35.55 12.21-21.58 7.84-16.63 7.84-35.55 4.91-35.55 4.91 0 7.84 0 7.84-12.77ZM46.48-32.96L57.83-32.96 57.83-35.55 32.3-35.55 32.3-32.96 43.65-32.96 43.63 0 46.48 0 46.48-32.96Z" opacity="1" transform="matrix(1,0,0,1,0,0)" fill="black" class="wordmark-text-0" id="SvgjsPath1304" stroke-width="6" stroke="black" stroke-linejoin="round"></path></svg></g></svg></g></svg></g></svg></g></svg></g></svg></g></svg></g></mask><g mask="url(#869c7ad2-2a39-404c-b90d-f3e14da6cb5a)"><g><path d="M134.859 158.406l31.92-33.45 89.431 122.255h24.827l-100.697-137.693 93.881-109.529h-25.452l-83.52 97.15-30.39 34.424v-131.574h-20.376v247.222h20.376z" fill="black" fill-rule="nonzero" stroke="none" stroke-width="1" stroke-linecap="butt" stroke-linejoin="miter" stroke-miterlimit="10" stroke-dasharray="" stroke-dashoffset="0" font-family="none" font-weight="none" font-size="none" text-anchor="none" style="mix-blend-mode: normal"></path></g></g><g transform="matrix(1,0,0,1,75.04086498683715,37.08)"><svg viewBox="0 0 245.43827002632568 173.04" height="173.04" width="245.43827002632568"><g><svg viewBox="0 0 245.43827002632568 173.04" height="173.04" width="245.43827002632568"><g><svg viewBox="0 0 245.43827002632568 173.04" height="173.04" width="245.43827002632568"><g><svg viewBox="0 0 245.43827002632568 173.04" height="173.04" width="245.43827002632568"><g id="SvgjsG1303"><svg viewBox="0 0 245.43827002632568 173.04" height="173.04" width="245.43827002632568" id="SvgjsSvg1302"><g><svg viewBox="0 0 245.43827002632568 173.04" height="173.04" width="245.43827002632568"><g transform="matrix(1,0,0,1,0,0)"><svg width="245.43827002632568" viewBox="1.4100000000000001 -39.05 59.92 42.55" height="173.04" data-palette-color="url(#79a575a6-2a97-4933-87dd-333ca851ed48)"><path d="M7.84-12.77L12.43-17.58 25.29 0 28.86 0 14.38-19.8 27.88-35.55 24.22-35.55 12.21-21.58 7.84-16.63 7.84-35.55 4.91-35.55 4.91 0 7.84 0 7.84-12.77ZM46.48-32.96L57.83-32.96 57.83-35.55 32.3-35.55 32.3-32.96 43.65-32.96 43.63 0 46.48 0 46.48-32.96Z" opacity="1" transform="matrix(1,0,0,1,0,0)" fill="black" class="wordmark-text-0" id="SvgjsPath1301"></path></svg></g></svg></g></svg></g></svg></g></svg></g></svg></g></svg></g></svg></g><defs><mask></mask></defs></svg><rect width="395.52" height="247.2" fill="black" stroke="none" visibility="hidden"></rect></g></mask></svg><rect width="395.52" height="247.2" fill="black" stroke="none" visibility="hidden"></rect></g></mask><linearGradient x1="0" x2="1" y1="0.578" y2="0.595" id="6e8370fe-2b86-4635-8935-32d38f7e5c48"><stop stop-color="#6ee2f5" offset="0"></stop><stop stop-color="#6454f0" offset="1"></stop></linearGradient></svg><rect width="395.52" height="247.2" fill="none" stroke="none" visibility="hidden"></rect></g></svg></g></svg>